<?xml version="1.0" encoding="UTF-8"?>
<svg id="Layer_1" data-name="Layer 1" xmlns="http://www.w3.org/2000/svg" viewBox="0 0 400 400">
  <defs>
    <style>
      .cls-1 {
        fill: #ecc090;
      }

      .cls-1, .cls-2 {
        stroke-width: 0px;
      }

      .cls-2 {
        fill: #cc9265;
      }
    </style>
  </defs>
  <path class="cls-2" d="M206.68,336.16c-.47,4.09-7.9,13.09-14.76,21.3-6.87,8.22-13.64,15.59-14.19,16.19l-.29.31h-42.12l46.44-39.47c-2.39-.76-6.96-2.4-11.98-5.18-9.6-5.3-16.17-12.24-19-20.06-4.07-11.23-1.53-22.9,8.97-37.52l27.44,15.9c-2.33,8.33-4.21,21.19-1.26,24.09,1,.97,21.78,15.63,20.76,24.45Z"/>
  <path class="cls-2" d="M283.49,302.64l-17.6,12.11-.28-.34c-.16-.19-16.34-19.68-22.05-48.93l-.3-1.49,40.22,38.64Z"/>
  <g>
    <path class="cls-1" d="M175.21,99.21c0,14.05-9.37,25.48-20.88,25.48s-20.89-11.43-20.89-25.48,9.38-25.48,20.89-25.48,20.88,11.43,20.88,25.48Z"/>
    <path class="cls-1" d="M352.27,251.07c-15.23,40.64-44.6,75.14-80.58,94.64l-.48-.77c26.53-21.48,45.4-55.43,53.11-95.59,7.41-38.58,3.56-79.87-10.54-113.3-17.24-40.85-46.69-69.98-85.16-84.23-37.4-13.85-81.04-11.95-122.88,5.34-5.55,2.29-11.03,4.91-16.31,7.76l-.48-.77c12.74-10.31,26.97-18.75,42.3-25.08,86-35.54,184.92,4.18,220.52,88.54,15.97,37.85,16.15,81.7.5,123.47Z"/>
    <path class="cls-1" d="M277.74,129.37c-.09,1.15-.35,2.61-1.02,3.58-1.75,2.54-4.48,4-7.41,4.74l-81.8,20.52c-9,11.98-12.23,23.86-9.61,35.31,5.93,25.86,55.53,51.09,55.92,51.28l.15.07c6.56,3.38,7.99,12.04,4.13,25.04l-.04.12c-.86,1.94-1.56,4.02-2.11,6.17-1.36,5.36-4.65,25.42,9.79,59.02,1.04,2.42,1.22,5.15.52,7.69l-8.61,31.07h-44.68l2.54-1.75c.36-.25,35.68-24.81,33.14-37.74-.64-3.23-3.84-5.51-9.53-6.77-31.09-6.85-27.61-39.75-26.85-44.97l-61.14-34.06-17.89,3.16c14.93,9.57,26.34,23.06,26.45,23.2,0,0-1.6,16.04-3.48,26.1-3.54,18.91-5.65,20.85-7.6,20.52-.28-.05-.53-.23-.68-.47l-46.99-77.42,43.71-31.74c-5.18-9.71-10.43-26.45-6.03-55l35.39,1.72c.98.02,1.11-1.42.13-1.56-16.23-2.4-43.65-6.48-47.05-7.2-8.16-1.74-12.51-2.12-14.3-6.41-1.45-3.49-.71-7.87,1.79-10.67,1.6-1.8,3.39-2.95,6.18-3.47,2.23-.41,8.44-.08,9.33-.04,1.93.12,44.72,1.03,46.48,1.17,7.38.44,14.82.57,22.07-.06,5.35-.46,80.14-6.95,80.14-6.95,2.58-.23,5.16-.45,7.74-.66,3.78-.3,7.57-.28,9.7,1.85,1.12,1.12,1.61,2.67,1.46,4.63Z"/>
  </g>
  <path class="cls-2" d="M116.18,209.79c-.04-.2-.1-.41-.16-.62-.13-.42-.26-.84-.38-1.26-1.88-6.32-3.9-19.07-4.13-20.54-.01-.08-.09-.14-.17-.13,0,0-2.7.27-2.71.27l-18.2,1.88c-1.09.11-2.12.59-2.91,1.35l-51.39,49.38h38.38l19.86-31.53c.19.04.37.08.56.12.5.11,1.01.22,1.51.33.74.16,1.49.32,2.23.48.9.19,1.81.39,2.71.58.98.21,1.97.42,2.95.62s1.97.41,2.95.62c.91.19,1.81.37,2.72.56.75.15,1.49.3,2.24.45.95.18,1.42.33,2.18.18.57-.11,1.11-.4,1.41-.91.21-.36.34-.77.37-1.19.02-.22,0-.43-.04-.64Z"/>
</svg>