<?xml version="1.0" encoding="UTF-8" standalone="no"?>
<svg
   xmlns:svg="http://www.w3.org/2000/svg"
   xmlns="http://www.w3.org/2000/svg"
   viewBox="500 500 3000 3000"
   height="3000"
   width="3000"
   xml:space="preserve"
   id="svg2"
   version="1.1"><defs
     id="defs6" /><g
     transform="matrix(1.3333333,0,0,-1.3333333,0,4000)"
     id="g10"><g
       transform="scale(0.1)"
       id="g12"><g
         transform="scale(1.84049)"
         id="g14"><path
           id="path16"
           style="fill:#ffffff;fill-opacity:0;fill-rule:nonzero;stroke:none"
           d="M 16300,0 H 0 V 16300 H 16300 V 0" /></g><g
         transform="scale(1.57849)"
         id="g18"><path
           id="path20"
           style="fill:#100f0d;fill-opacity:1;fill-rule:evenodd;stroke:none"
           d="m 13910.4,12168.3 c 148.3,-1484.6 -555.3,-2899.04 -1770.3,-3687.9 68.3,188.92 -253.6,610.65 -396.6,758.2 -62.1,64.18 -115.4,125.12 -161.1,183.4 -519.3,661.3 -76.4,985.9 -570.6,1916.6 892.1,-318.6 1866.9,691.7 2898.6,829.7 z M 12139.6,8368.59 c 1669,778.97 2620.2,2640.01 2191.4,4499.91 -8.9,38.1 -18.2,75.9 -28.1,113.5 l 497.9,130.5 -5.1,-182.7 407.1,311.4 -506.8,85.8 99.8,-153.2 -512.5,-119.4 c -563,2002.3 -2586.8,3245.6 -4644.06,2816.3 1930.86,203.3 3718.46,-1039.5 4200.96,-2919.5 l -3.5,-0.8 1.1,-6.9 -3404.9,-919.7 -30.7,91.9 c 30.5,-13.8 91.5,2.3 98.4,49.4 -113,346.1 -169.5,519.2 -169.5,519.2 -279.4,45.4 -419.13,68.2 -419.13,68.2 -19.01,63 -28.45,94.4 -28.45,94.4 215.18,-102.8 458.58,28.5 495.18,-154.9 95.3,-275.5 143,-413 143,-413 6.2,84.6 9.3,127 9.3,127 -115.3,372.5 -275.3,729.6 -476.5,1063.6 -138.86,-254.2 -377.25,-439.2 -657.96,-510.5 211.34,97.8 398.61,240.8 548.69,419 -260.38,159.6 -590.82,149 -840.49,-26.9 -249.67,-176.1 -370.61,-483.8 -307.64,-782.7 139.57,-653.4 787.97,-564.8 809.76,-873.1 v -0.3 c 0.39,-5.4 0.64,-11.1 0.57,-16.8 -0.06,-17.3 -1.9,-35.8 -5.89,-55.6 v 0 c -1.33,-6.7 -2.85,-13.5 -4.62,-20.4 l -0.19,-0.6 c -1.71,-6.8 -3.61,-13.6 -5.83,-20.6 -2.16,-7.1 -4.62,-14.3 -7.22,-21.7 l -0.26,-0.7 v -0.1 c -2.72,-7.5 -5.7,-15.3 -8.86,-23.2 -168.65,-476.6 149,-987.8 650.84,-1047.8 -210.9,-22.2 -421.39,46.5 -578.43,189.1 -4.31,3.9 -8.49,7.7 -12.61,11.6 l -5.26,5.1 -7.28,7.1 -5.33,5.4 -6.52,6.7 -5.26,5.5 -6.71,7.2 -5.07,5.6 -5.51,6.2 -5.71,6.5 -5.89,7 -4.5,5.4 -6.52,8 -3.3,4 -1.07,1.5 -9.25,12.2 -0.13,0.2 c -3.36,4.4 -6.59,8.9 -9.82,13.4 l -1.39,2 -8.11,11.8 -1.46,2.1 -7.73,12 -1.33,2 -6.97,11.3 -2.4,4 -5.33,8.9 -3.04,5.2 -5.19,9.4 -2.47,4.5 c -5.01,9.3 -9.82,18.6 -14.38,28.1 l -0.13,0.4 -6.14,12.8 -0.95,2.1 -1.65,3.7 -4.31,9.9 -1.9,4.5 -4.37,10.4 -1.9,4.8 -3.61,9.3 -2.03,5.4 -3.86,10.8 -1.34,3.4 -4.18,12.5 -0.88,2.7 -3.61,11.2 -1.14,3.7 -0.32,1.2 -4.18,13.9 -0.13,0.6 c -1.46,5.1 -2.85,10.2 -4.18,15.3 l -0.57,2.2 -3.3,13.3 -0.88,3.9 -2.34,10.1 -1.53,7 -2.02,9.6 -0.83,4.1 -2.28,11.7 -0.82,4.6 -1.97,11.3 -0.69,4.2 -1.84,12.2 -0.51,3.1 -0.19,1.1 -1.9,14.6 -0.12,0.7 -0.64,5.4 -1.2,10.6 -0.26,2.3 -1.26,12.6 -0.51,5.6 -1.07,11.8 -0.13,2.8 -0.95,13.5 -0.19,3.3 -0.57,10.2 -0.38,7.6 -0.13,1.9 -0.38,12.1 -0.44,16.8 v 0.8 c -0.26,16.4 -0.19,32.9 0.25,49.5 v 0.6 l 0.44,14.6 0.13,3.9 0.57,13 0.19,3.6 0.64,11.6 0.31,5 c 0.64,10.2 1.4,20.5 2.28,30.8 l 0.13,1.7 v 0.8 l 1.46,15 0.12,1.2 c 1.52,16.6 3.42,33.3 5.58,50.1 l 0.31,2.6 1.4,10.5 1.26,9 0.26,2 1.58,10.7 0.64,4.4 1.96,12.6 0.38,2.5 2.41,14.5 0.06,0.5 2.6,15.1 0.25,1.3 2.35,13.7 c 7.47,40.5 16.09,80.7 25.59,120.6 12.48,52.5 23.88,94.8 -27.37,135.8 -26.99,21.5 -62.97,28.2 -95.98,18 -155.59,-22.5 -487.68,-264.2 -853.03,-334.2 -512.96,-7.8 -958.77,-354.3 -1092.94,-849.5 6.58,182.5 83.81,355.2 215.58,481.6 -215.97,-52 -394.87,-202.4 -483.18,-406.4 -64.56,-88.3 -83.37,-202 -51,-306.5 7.28,-38.7 33.45,-71.4 69.56,-87.1 87.87,-24.4 177.26,-42.2 267.72,-53.1 254.81,-98.9 541.22,-72.6 773.66,71.1 232.56,143.6 384.35,387.7 410.01,659.9 24.77,-183.2 -17.86,-369 -119.8,-523.2 97.88,-330.9 479.45,-417.6 887.43,-656.22 C 9561.76,8255.44 7095.85,8973.79 6119.9,8599.19 l -28.68,-11.02 c -124.01,-47.58 -269.1,-222.81 -292.42,-369.66 -113.95,-54.99 -211.17,-144.51 -278.31,-251.44 -33.04,-52.71 -58.83,-106.69 -81.18,-164.78 -10.61,-27.56 -18.19,-65.51 -27.04,-98.77 -193.94,40.36 -428.86,69.37 -604.36,-17.67 l -64.75,-32.12 c -115.28,26.1 -190.7,39.59 -314.96,-8.17 l -28.68,-10.96 c -143.27,-54.99 -179.71,-206.98 -234.79,-330.83 -47.25,-106.05 -84.53,-215.97 -131.65,-321.95 -104.18,-233.65 -230.33,-498.9 -131.09,-757.56 l 38.6,-100.42 c 77.7,-202.53 241.69,-304.21 408.34,-420.46 73.58,-187.84 152.1,-334.44 297.97,-478.69 79.59,-78.75 290.58,-219.01 328.17,-316.89 l 10.99,-28.63 c 87.5,-228.07 -432.78,-673.94 -247.57,-1156.55 l 52.25,-136.21 c 12.62,-33 24.12,-57.46 42.64,-84.13 -1.08,-17.29 -4.23,-37.88 -5.75,-52.96 -7.46,-71.78 -8.28,-152.17 17.94,-220.4 69.92,-182.33 294.62,-253.98 473.77,-229.15 l 124.65,17.24 -70.5,104.21 c -17.82,26.42 -54.03,52.33 -66.85,72.66 l -15.79,41.18 c -19.27,50.11 89.59,180.68 118.5,216.79 56.61,70.83 143.22,169.34 162.42,267.22 115.03,77.73 227.66,261.33 277.39,372.26 28.49,63.54 51.73,147.98 74.22,214.95 13.82,41.18 27.73,82.29 42.63,123.03 2.73,7.67 6.12,17.23 9.73,27.05 12.96,-2.73 25.66,-5.51 37.33,-7.92 52.88,-10.64 105.76,-21.79 158.63,-32.75 51.17,-10.58 102.35,-21.16 153.57,-31.17 32.91,-6.53 69.59,-14.45 102.98,-17.49 84.76,-7.85 169.97,-18.05 254.17,-31.42 83.62,-13.3 158.82,-45.42 239.72,-67.98 61.45,-17.04 143.81,-70.25 195.76,-107.57 72.92,-52.26 115.3,-154.77 204.24,-194.42 166.24,-73.94 383.03,71.08 463.49,36.8 14.82,-6.33 23.24,-23.5 28.69,-37.69 26.99,-70.39 -32.87,-105.23 -84.7,-140.96 -52.45,-36.24 -111.81,-72.66 -147.8,-126.51 -100.54,-150.59 -100.09,-345.84 -36.87,-510.62 l 30.29,-78.94 c 47.76,-124.61 151.22,-253.65 247.38,-344.5 l 45.74,-43.14 52.01,35.22 c 79.32,53.66 165.23,150.84 228.45,223.44 65.82,75.58 130.06,154.2 190.69,234.08 71.97,94.84 124.3,165.16 144.06,286.67 6.65,40.68 -0.06,143.24 -10.64,230.8 39.41,-26.99 79.89,-64.69 94.58,-79.51 42.96,-43.59 86.29,-95.54 118.79,-147.36 56.76,-90.34 100.47,-223 189.99,-283.12 93.19,-62.59 206.09,-37.82 303.58,-0.44 22.62,8.68 43.84,18.5 65.13,29.96 5.45,2.92 13.37,7.8 19.83,10.71 9.56,-2.6 24.39,-9.82 31.36,-13.11 32.56,-15.34 66.39,-57.15 79.25,-90.79 l 8.24,-21.54 c 15.01,-38.96 23.69,-87.55 14.31,-128.92 l -7.54,-33 18.95,-28.2 c 160.15,-236.36 472.41,-245.74 716.3,-152.1 l 43,16.47 c 128.9,49.54 232.5,124.11 345.4,200.57 l 56,37.95 -29.4,60.88 c -31.5,65.5 -219.2,198.99 -281.1,243.46 -60.1,43.14 -247,177.89 -315.64,189.99 -232.06,41.05 -398.29,91.99 -611.09,192.85 -286.8,135.7 -848.86,637.5 -963.46,936.46 l -19.38,50.18 c -89.77,233.83 8.42,501.87 146.59,695.54 70.32,98.76 144.7,203.86 178.72,321.57 42.7,147.99 14.13,300.8 -33.01,444.92 59.43,2.54 120.94,8.74 169.09,12.73 150.97,12.93 301.93,29.97 452.08,48.91 149.19,18.75 298.64,39.41 447.01,64.24 62.78,10.52 146.85,23.19 218.31,41.56 51.5,-71.14 125.98,-87.55 216.18,-116.06 78.8,-24.9 123.4,-51.44 190.2,-99.65 131.1,-94.84 253.6,-206.78 373,-316 122.4,-112.01 263.6,-198.93 388,-307.89 60.6,-53.15 120.5,-110.61 171.9,-172.83 61.8,-74.94 89.9,-160.84 168.9,-227.36 127.2,-107.39 277.2,-170.04 409,-268.17 132.3,-98.39 250.2,-209.89 369.8,-322.91 45.1,-42.57 126.3,-134.37 157.1,-186.63 52,-89.01 101,-177.96 185.3,-240.99 81.3,-60.51 165.8,-71.21 262.8,-52.33 37.4,7.22 113.9,31.93 149.5,26.1 22,-3.74 36.6,-21.73 48.2,-39.6 l 122.2,-187.45 130.2,-162.94 26.8,-6.09 c 141.2,-32.12 331.3,-10.45 466.9,41.56 144.5,55.43 300.1,116 408.6,230.92 l 26.3,27.87 -5.8,37.95 c -6.4,41.75 -51.4,80.84 -81.1,108.4 -40.3,37.19 -82.1,73.04 -123.9,108.52 -38.7,32.88 -77.8,65.44 -116.6,98.19 -18.5,15.52 -41.9,33.58 -59.3,50.75 l -6.9,10.26 -16,9.06 c -18.2,10.2 -32.5,23.44 -49.8,34.4 -40.6,25.53 -84.6,28.95 -131.3,29.02 -30.1,0.12 -108.8,-1.84 -135.4,6.27 l -18,6.52 -19.2,-2.72 c -80.2,-11.02 -333.7,69.43 -413.6,105.04 -142.7,63.48 -257.2,131.9 -375.3,235.41 -128.7,112.89 -218.9,241.31 -326.9,372.26 -54.2,65.82 -106.7,146.53 -154,217.61 -30.2,45.61 -65.7,97.69 -96.5,149.2 l 86.4,33.13 312.8,170.41 168.6,104.85 c 88,35.03 167.3,88.82 257.2,123.28 95.9,36.81 189.3,79.38 258.3,158.32 48.6,55.75 101.2,153.44 123.2,224.2 22.7,72.86 33.9,150.15 49,224.84 l 53.6,267.53 c 16.5,82.17 55.4,167.32 79.2,248.85 23.8,81.6 48.2,159.33 82.9,237.06 70.8,159.01 190.3,409.7 124.1,582.33 l -30.2,78.81 c -56.3,146.72 -174.8,304.15 -305.4,391.96 -217.3,146.22 -297.9,3.55 -494,-71.71 l -21.2,-8.11 -8.8,-11.91 c -60.9,-37.07 -307.3,-83.88 -383.3,-105.8 -49.7,-14.26 -144.2,-39.47 -193.4,-15.02 -21.6,10.65 -33.4,31.24 -41.2,53.28 z M 9014.91,13354.4 c 201.26,173 475.07,235.6 731.58,167.2 70.32,244.1 239.03,447.9 465.71,562.6 -648.41,264.9 -1392.55,5.6 -1735.72,-605 68.99,-96.3 162.75,-172 271.4,-219 -112.9,33.3 -216.48,93 -302.06,174 -132.54,-236.4 -151.67,-519.9 -52.27,-772.1 99.33,-252 306.81,-446.2 564.97,-528.6 -291.92,267.2 -355.02,703.2 -150.77,1042.2 193.28,313.8 528.98,512 897.12,529.9 -263.92,-33.2 -507.89,-157.4 -689.96,-351.2 z M 5850.61,5268.47 c 62.4,-69.06 90.77,-162.31 77.24,-254.49 16.75,-21.41 45.23,-28.44 69.43,-18.62 4.3,2.28 8.72,4.75 13.02,7.22 43.46,24.07 85.21,47.51 114.85,72.28 94.62,79.26 225.68,241.12 174.66,374.22 l -22.04,57.34 c -46.06,120.17 -132.73,193.41 -209.54,250.55 -81.12,60.31 -153.32,120.94 -234.44,181.51 -114.76,85.77 -336.17,335.89 -405.85,517.39 -62.22,161.99 -83.96,547.49 -23.76,640.93 9.72,45.68 -5.37,93.07 -39.61,124.74 l -164.18,-43.27 -99.62,-41.56 c -302.33,-115.93 -421.53,-424.39 -302.9,-733.36 l 22.06,-57.33 c 205.8,-536.53 747.61,-339.82 1030.68,-1077.55 z M 5023.2,6854.99 c -135.44,-153.95 -120.9,-348.25 -50.16,-532.6 l 5.5,-14.32 c 20.97,-54.61 83.89,-165.6 132.22,-225.15 -94.26,40.1 -235.58,279.38 -261.97,348.18 l -22.04,57.4 c -57.1,148.81 -35.31,303.39 127.28,365.79 14.4,5.51 47.95,6.02 69.17,0.7 z M 7558.63,4656.62 c 17.87,147.98 14.89,325.94 -56.95,513.02 -34.84,90.97 -103.39,186.19 -156.41,236.3 -65.89,-93.44 -421.23,-425.53 -388.35,-511.12 24.07,-62.53 223.38,-124.17 285.02,-147.93 65.25,-24.96 251.51,-99.21 316.69,-90.27 z M 11428,6933.16 c -156.8,-43.96 -180.5,-216.28 -141.1,-314.09 76.6,-157.18 139.3,-240.74 208.2,-354.58 32.3,-53.79 73.9,-117.78 115.3,-178.91 32.4,-50.37 63.4,-95.72 89.4,-128.48 13.5,-18.62 25.7,-35.41 36.5,-49.6 7.8,22.61 16.2,45.99 25.4,69.68 14.3,31.81 29.8,70.07 46.4,106.44 33.5,67.34 74.9,131.32 127.9,180.8 16.7,12.74 57.8,37.95 84.1,59.62 10,5.13 20.4,9.69 30.9,13.81 77.1,29.52 134.5,38.26 181.4,27.49 18.3,-4.18 38.9,-6.21 52.2,-17.1 17.1,-13.94 25,-38.84 45.8,-55.88 12.4,-10.2 29,-18.82 46.7,-27.37 10.1,-5.76 20.5,-10.83 30.8,-14.82 7,-3.55 13.9,-7.04 20.4,-10.9 17,-4.31 35.9,-3.23 52.6,-0.57 45.3,7.1 107.7,34.97 95.3,82.55 l -10,36.62 c -4.2,28.63 -10.4,60.81 -8.7,93.37 1.4,10.59 3.6,21.86 6.8,34.66 2,7.92 4.6,15.71 7.7,23.44 7.2,15.4 17,31.86 28.6,48.02 37.1,48.59 95.2,90.09 153.8,122.14 130.2,71.21 199.7,209.51 230.8,309.6 29.4,94.4 49.4,205.45 62.4,309.48 9.4,39.59 13.7,99.08 14.3,148.87 l 3.7,61.71 c 1,23.5 -22.5,29.27 -33.9,27.56 -49.4,-7.35 -175.1,-211.03 -238.6,-273.94 -41.6,-41.24 -144.3,-162.18 -351.2,-215.27 -104.1,-26.6 -231.8,-28 -364.4,-82.36 -106,-43.26 -111.3,-92.49 -134.3,-125.37 -23.1,-33.57 -43.7,-43.71 -77.7,-56.13 -54.8,-19.89 -123,6.66 -166.9,23.89 l -8.5,6.84 c -40.3,65.19 -130.7,155.65 -262.1,118.78 z m 3334,6360.34 69.2,-102.7 283.7,40.3 c 0,0 -350.3,58.6 -352.9,62.4 z m -2828.1,-1185.9 c 436.3,230.4 1451,384 1965.8,501.6 11,83.9 0.1,169.2 -31.5,247.7 0,0 -958.4,-251.6 -2875.3,-754.5 487.6,67.7 983.8,-29.9 1409.3,-277.3 -133.7,127 -293.5,223.5 -468.3,282.5" /></g></g></g></svg>
